<?xml version="1.0" standalone="no"?>
<!DOCTYPE svg PUBLIC "-//W3C//DTD SVG 20010904//EN"
 "http://www.w3.org/TR/2001/REC-SVG-20010904/DTD/svg10.dtd">
<svg version="1.0" xmlns="http://www.w3.org/2000/svg"
 width="300.000000pt" height="300.000000pt" viewBox="0 0 300.000000 300.000000"
 preserveAspectRatio="xMidYMid meet">
<metadata>
Created by potrace 1.14, written by Peter Selinger 2001-2017
</metadata>
<g transform="translate(0.000000,300.000000) scale(0.100000,-0.100000)"
fill="#000000" stroke="none">
<path d="M1257 2053 l-648 -3 -15 -33 c-8 -17 -21 -41 -27 -52 -7 -11 -43 -76
-81 -145 -38 -69 -126 -228 -196 -355 -70 -126 -143 -259 -163 -295 -19 -36
-56 -101 -80 -145 -25 -44 -44 -81 -43 -81 0 -1 393 -4 872 -7 l870 -5 42 81
c36 72 139 266 185 352 16 28 16 17 13 -203 l-3 -232 190 2 189 3 119 235 118
235 1 -237 0 -238 200 0 200 0 -5 193 c-14 568 -22 872 -24 915 l-1 22 -187
-2 -187 -3 -58 -103 c-31 -57 -77 -140 -101 -185 -63 -116 -88 -161 -95 -169
-4 -4 -9 79 -11 185 -1 106 -4 210 -5 232 l-1 40 -210 0 c-116 0 -502 -1 -858
-2z"/>
</g>
</svg>
